<svg xmlns="http://www.w3.org/2000/svg" width="691" height="303" fill="none"><mask id="a" fill="#fff"><path d="m469.478 0 86.105 49.713-37.19 64.416c-35.497 61.482-101.123 99.33-172.117 99.263"/></mask><path fill="#E5E6E7" d="m469.478 0 .5-.866-.866-.5-.5.866zm86.105 49.713.866.5.5-.866-.866-.5zM346.276 213.392l-.866-.5-.865 1.498 1.73.002zm172.117-99.263.866.5zM468.978.866l86.105 49.713 1-1.732L469.978-.866zm85.739 48.347-37.191 64.416 1.733 1 37.19-64.416zM347.142 213.892 470.344.5l-1.732-1L345.41 212.892zm170.384-100.263c-35.318 61.172-100.613 98.83-171.249 98.763l-.002 2c71.351.067 137.308-37.971 172.984-99.763z" mask="url(#a)"/><mask id="b" fill="#fff"><path d="m222.722 0-86.106 49.713 37.191 64.416c35.497 61.482 101.123 99.33 172.116 99.263"/></mask><path fill="#E5E6E7" d="m222.722 0-.5-.866.866-.5.5.866zm-86.106 49.713-.866.5-.5-.866.866-.5zm209.307 163.679.866-.5.865 1.498-1.73.002zm-172.116-99.263-.866.5zM223.222.866l-86.106 49.713-1-1.732L222.222-.866zm-85.74 48.347 37.191 64.416-1.732 1-37.191-64.416zm207.575 164.679L221.856.5l1.732-1 123.201 213.392zM174.673 113.629c35.318 61.172 100.613 98.83 171.249 98.763l.002 2c-71.351.067-137.308-37.971-172.983-99.763z" mask="url(#b)"/><mask id="c" fill="#fff"><path d="M43.497 302.304v-99.426h74.381c70.994 0 136.584 37.91 172.023 99.426"/></mask><path fill="#E5E6E7" d="M43.497 302.304h-1v1h1zm0-99.426v-1h-1v1zm246.404 99.426v1h1.73l-.864-1.499zm-172.023-99.426v-1zm-73.38 99.426v-99.426h-2v99.426zm-1-98.426h74.38v-2h-74.38zM289.9 301.304H43.497v2h246.404zm-172.023-97.426c70.636 0 135.896 37.719 171.156 98.925l1.733-.998c-35.617-61.826-101.537-99.927-172.889-99.927z" mask="url(#c)"/><mask id="d" fill="#fff"><path d="M647.794 302.304v-99.426h-74.381c-70.993 0-136.584 37.91-172.022 99.426"/></mask><path fill="#E5E6E7" d="M647.794 302.304h1v1h-1zm0-99.426v-1h1v1zm-246.403 99.426v1h-1.73l.863-1.499zm172.022-99.426v-1zm73.381 99.426v-99.426h2v99.426zm1-98.426h-74.381v-2h74.381zm-246.403 97.426h246.403v2H401.391zm172.022-97.426c-70.636 0-135.896 37.719-171.156 98.925l-1.733-.998c35.617-61.826 101.538-99.927 172.889-99.927z" mask="url(#d)"/></svg>